<?xml version="1.0" standalone="no"?>
<!DOCTYPE svg PUBLIC "-//W3C//DTD SVG 20010904//EN"
 "http://www.w3.org/TR/2001/REC-SVG-20010904/DTD/svg10.dtd">
<svg version="1.0" xmlns="http://www.w3.org/2000/svg"
 width="840.000000pt" height="229.000000pt" viewBox="0 0 840.000000 229.000000"
 preserveAspectRatio="xMidYMid meet">

<g transform="translate(0.000000,229.000000) scale(0.100000,-0.100000)"
fill="#000000" stroke="none">
<path d="M1209 1946 c-116 -41 -184 -132 -196 -261 -10 -109 44 -239 126 -304
58 -46 149 -84 204 -83 26 0 49 -3 51 -7 3 -4 -24 -17 -60 -30 -35 -12 -62
-27 -59 -31 3 -5 0 -12 -6 -15 -20 -13 -89 -169 -89 -202 0 -19 7 -50 15 -70
18 -44 18 -43 0 -43 -21 0 -74 -52 -76 -75 -4 -49 15 -85 44 -85 6 0 1 7 -11
16 -44 30 -18 96 45 113 29 8 43 7 72 -8 20 -10 48 -21 63 -25 32 -7 54 -60
39 -97 -14 -38 -46 -62 -68 -51 -35 18 -94 21 -150 6 -50 -13 -58 -13 -79 1
-80 52 -108 186 -60 290 14 30 51 82 82 115 69 73 57 80 -15 9 -93 -91 -138
-219 -112 -316 7 -24 30 -62 57 -92 44 -49 46 -53 34 -81 -35 -83 32 -172 127
-169 l38 2 -40 6 c-73 13 -105 48 -105 114 1 48 21 70 54 57 34 -13 137 -13
169 -1 28 11 43 -1 71 -56 36 -71 3 -143 -86 -187 -67 -33 -179 -36 -245 -6
-97 44 -175 148 -188 251 l-5 44 13 -45 c21 -74 69 -140 101 -140 14 0 3 30
-25 68 -37 51 -69 130 -70 175 0 27 -2 29 -9 12 -16 -37 -11 37 6 96 23 80 78
171 147 247 64 69 54 68 -19 -3 -85 -83 -151 -214 -169 -338 -8 -57 13 -176
41 -234 67 -138 229 -216 373 -179 113 29 172 86 179 173 4 46 1 60 -25 101
l-29 47 24 35 c19 29 23 44 20 87 l-5 51 36 7 c59 10 134 52 159 88 12 18 22
37 22 43 0 5 -10 -6 -21 -23 -25 -40 -42 -43 -28 -6 23 61 -17 146 -81 173
-60 25 -31 98 47 119 35 9 3398 35 4733 36 456 0 480 -1 607 -24 73 -13 151
-21 175 -18 24 2 103 12 177 22 l134 17 43 -43 44 -43 38 37 c21 21 48 37 61
37 12 0 62 -17 109 -37 78 -34 95 -38 167 -37 87 1 172 26 237 69 53 35 50 58
-14 95 -113 65 -248 81 -345 42 -29 -12 -76 -31 -105 -43 l-51 -20 -47 46 -47
46 -52 -47 -51 -46 -78 7 c-42 4 -111 13 -153 20 -79 14 -156 9 -284 -18 -71
-14 -829 -16 -1960 -5 -396 4 -1327 8 -2070 9 -742 1 -1379 6 -1414 11 -135
19 -261 112 -296 218 -37 112 -15 231 56 295 50 45 80 57 150 57 105 1 199
-69 215 -161 4 -20 10 -43 15 -51 15 -26 10 32 -7 89 -37 126 -190 202 -315
157z m262 -732 c-11 -14 -23 -41 -27 -60 -4 -25 -11 -34 -26 -34 -29 0 -76
-28 -89 -53 l-12 -22 25 22 c36 33 84 40 111 16 12 -11 34 -27 50 -36 23 -15
27 -24 27 -60 0 -49 -19 -81 -60 -102 -71 -37 -147 -5 -185 78 -39 84 -29 160
29 216 32 31 101 58 154 60 l23 1 -20 -26z m-251 -186 c0 -13 9 -43 20 -67 24
-53 25 -57 3 -40 -32 28 -59 129 -33 129 6 0 10 -10 10 -22z m27 -370 c-20 -7
-39 -7 -60 0 -29 9 -27 10 28 10 53 0 57 -1 32 -10z"/>
<path d="M1260 1823 c-71 -28 -109 -95 -110 -188 0 -120 75 -217 198 -255 35
-11 76 -20 91 -19 18 0 12 4 -22 13 -60 16 -72 27 -21 19 l39 -6 -21 24 c-40
45 -36 50 11 15 56 -43 70 -45 51 -8 -7 15 -17 42 -21 60 -12 56 -57 99 -113
106 -26 4 -55 10 -66 13 -17 5 -18 1 -12 -43 8 -55 47 -128 72 -138 9 -4 14
-9 11 -12 -10 -10 -73 34 -101 71 -84 109 -87 237 -9 305 67 59 156 26 181
-67 7 -26 10 -31 11 -15 1 29 -20 70 -51 99 -24 22 -91 37 -118 26z"/>
<path d="M920 1645 c-16 -20 -9 -98 14 -147 36 -75 134 -150 226 -173 l25 -6
-23 14 c-35 20 -109 95 -133 133 -11 19 -33 69 -47 111 -28 80 -41 94 -62 68z"/>
<path d="M854 1410 c-12 -4 -31 -21 -44 -37 -55 -70 20 -165 127 -162 27 1 30
3 13 6 -56 9 -91 26 -115 54 -31 38 -32 63 0 94 40 41 140 31 165 -16 10 -18
9 -26 -7 -48 -11 -14 -31 -29 -44 -32 -23 -7 -23 -7 4 -8 32 -1 77 38 77 66 0
63 -104 112 -176 83z"/>
<path d="M1283 1280 c-34 -14 -28 -21 7 -9 17 6 30 13 30 15 0 6 -12 4 -37 -6z"/>
<path d="M1240 1220 c-9 -6 -10 -10 -3 -10 6 0 15 5 18 10 8 12 4 12 -15 0z"/>
<path d="M1008 1213 c7 -3 16 -2 19 1 4 3 -2 6 -13 5 -11 0 -14 -3 -6 -6z"/>
<path d="M1182 1190 c-18 -11 -31 -24 -28 -29 3 -4 -9 -21 -26 -37 -49 -46
-68 -98 -68 -186 0 -43 4 -78 10 -78 5 0 27 17 50 38 36 35 40 43 40 89 0 57
14 105 42 146 11 15 15 27 10 27 -13 0 -62 -58 -62 -72 0 -6 -2 -9 -5 -6 -10
9 33 91 57 110 31 24 21 23 -20 -2z"/>
<path d="M732 1173 c7 -39 81 -53 178 -32 62 13 66 25 6 21 -24 -2 -71 3 -106
12 -77 20 -82 20 -78 -1z"/>
<path d="M464 1161 c-126 -31 -191 -138 -144 -236 56 -115 213 -154 358 -89
44 20 286 264 273 277 -4 4 -39 5 -77 1 -59 -6 -73 -12 -102 -40 l-34 -33 38
-7 c21 -4 56 -2 77 3 l39 11 -38 -39 c-20 -21 -41 -36 -45 -34 -4 3 -28 -4
-53 -16 -25 -11 -74 -25 -109 -31 -73 -12 -93 -24 -76 -44 26 -32 123 -4 200
57 21 17 39 28 39 25 0 -12 -143 -116 -176 -126 -20 -7 -68 -10 -108 -8 -61 3
-79 8 -110 32 -108 82 -100 197 17 251 110 52 240 11 265 -83 9 -32 10 -33 11
-10 2 62 -54 118 -139 137 -51 12 -62 12 -106 2z"/>
<path d="M937 881 c-18 -82 4 -187 41 -199 17 -5 15 23 -5 61 -9 18 -19 64
-22 102 -6 61 -7 66 -14 36z"/>
<path d="M755 871 c-22 -15 -76 -47 -120 -70 -44 -24 -93 -56 -110 -72 -30
-29 -30 -30 -27 -127 2 -53 5 -98 7 -100 2 -2 27 12 57 31 29 19 84 52 122 73
38 21 77 50 87 64 17 23 40 100 54 180 l5 35 -17 -25 c-10 -14 -38 -45 -62
-70 -38 -39 -40 -40 -19 -10 24 33 72 121 66 120 -2 -1 -21 -14 -43 -29z"/>
<path d="M895 807 c-17 -83 16 -178 71 -208 38 -20 46 -6 19 31 -43 57 -67
111 -75 165 l-7 50 -8 -38z"/>
<path d="M1240 470 c-9 -6 -10 -10 -3 -10 6 0 15 5 18 10 8 12 4 12 -15 0z"/>
</g>
</svg>
