<svg width="155" height="114" viewBox="0 0 155 114" fill="none" xmlns="http://www.w3.org/2000/svg">
<path d="M66.0656 0.166496C63.7854 0.539435 62.0668 1.59165 61.3313 3.05677C60.6559 4.39535 60.8432 5.79387 61.8194 6.75952C62.5282 7.46544 63.4778 7.83172 64.7616 7.90497C65.6777 7.95159 66.4266 7.82506 67.0953 7.5054C67.6838 7.21903 68.0315 6.88605 68.2989 6.32664C68.5597 5.7739 68.5798 5.12125 68.3524 4.68838C68.0114 4.02242 67.2625 3.64282 66.2996 3.63616C65.5106 3.6295 65.0692 3.82263 64.7081 4.33542L64.4674 4.67506L64.3939 4.38869C64.2735 3.94916 64.3404 3.16332 64.5343 2.76375C64.9622 1.85138 66.0321 1.29863 67.336 1.31195C68.7336 1.31861 70.0509 1.95793 70.8533 3.01681C71.2344 3.51628 71.6958 4.46195 71.8563 5.09461C72.0302 5.74726 72.0302 7.4055 71.863 8.19134C71.308 10.7886 69.643 13.6522 67.4965 15.7167C66.9415 16.2428 66.761 16.3827 66.7476 16.2894C66.7275 16.2162 66.9683 15.9232 67.4497 15.4303C68.2321 14.6312 68.6868 13.9719 68.9877 13.2194C69.1482 12.8065 69.1682 12.6599 69.1682 11.9873C69.1749 11.2814 69.1615 11.1948 68.9877 10.8419C68.7603 10.3757 68.3056 9.96946 67.8576 9.81628C67.0552 9.55656 65.8516 9.84958 65.3233 10.4356C65.0157 10.7753 64.9087 11.1016 64.9422 11.5877C65.0024 12.4602 65.8783 13.0862 66.7075 12.8531C67.0686 12.7532 67.4029 12.4002 67.4029 12.1272C67.4029 11.8541 67.1421 11.5078 66.8145 11.3413L66.5203 11.1948L66.7275 11.0949C67.0218 10.9418 67.4564 10.9617 67.7506 11.1415C68.2053 11.4146 68.4059 11.8142 68.4059 12.4468C68.3992 13.226 67.998 13.9719 67.0686 14.9309L66.4333 15.5835L66.1391 15.3837C65.7245 15.104 65.2698 14.9841 64.6011 14.9841C63.2838 14.9841 61.8997 15.6168 60.7027 16.7689C60.4152 17.0486 60.1812 17.2551 60.1812 17.2284C60.1812 17.2085 60.2213 17.002 60.2748 16.7689C60.6492 15.1307 60.3015 13.7654 59.2383 12.6266C58.8973 12.2604 58.4627 11.9207 57.6803 11.3946C55.9952 10.2625 55.7278 9.87622 55.9016 8.77738C55.9417 8.51766 55.9618 8.29789 55.9484 8.27791C55.8949 8.2313 55.574 9.03045 55.4937 9.39007C55.4469 9.60318 55.4335 9.97612 55.4536 10.2891C55.5138 11.0816 55.7545 11.7542 56.7308 13.8054C57.473 15.3637 57.7338 16.3427 57.7338 17.5148C57.7271 18.6802 57.4128 19.7724 56.7709 20.8513C56.4232 21.4373 55.6208 22.4895 55.1326 23.0023C54.9253 23.2154 54.7849 23.4219 54.8117 23.4485C54.9655 23.6017 57.8475 21.0111 59.2985 19.4195C60.6225 17.9677 61.1641 17.4615 61.786 17.0886C63.2304 16.2162 64.2133 16.1629 64.5878 16.9354C64.882 17.5414 64.7081 18.1808 64.113 18.6469C62.0334 20.2919 58.4426 22.383 55.1995 23.8414C54.0427 24.3609 51.8962 25.24 51.7759 25.24C51.7491 25.24 51.9631 25.1068 52.2573 24.9469C53.4743 24.301 54.6913 23.362 55.4402 22.4962C56.6706 21.071 57.4396 19.1997 57.4396 17.6147C57.4396 15.8166 56.5569 14.4114 54.932 13.6189C53.9223 13.1195 52.8123 12.9929 51.7959 13.2526C51.0537 13.4391 50.5254 13.7388 49.9838 14.2849C49.2014 15.0574 48.8404 15.9431 49.0075 16.6757C49.1613 17.3616 49.6628 17.9077 50.5121 18.3073C51.1941 18.627 51.1807 18.627 51.2677 18.2474C51.4683 17.4216 52.2573 16.7956 53.1132 16.7822C54.1764 16.7756 54.698 17.6147 54.698 19.3395C54.698 20.6781 54.2634 21.7503 53.2269 22.9624C52.157 24.2077 49.9102 25.6196 47.4428 26.5919C46.1322 27.1047 46.0921 27.1113 46.7942 26.6385C48.165 25.7261 48.7401 24.867 48.6665 23.8481C48.593 22.8358 47.8106 22.05 46.5067 21.6771C44.9486 21.2242 43.1967 22.3031 43.1967 23.7016C43.1967 24.0812 43.4441 24.6339 43.7049 24.8337C44.173 25.2 44.8617 25.2866 45.3833 25.0335C45.9784 24.7472 46.1255 24.2011 45.7711 23.6084L45.5839 23.2887L45.8982 23.322C46.6805 23.4086 47.1954 23.9413 47.1152 24.574C46.9948 25.5063 45.9249 26.6118 44.4271 27.3577C43.6915 27.724 42.6751 28.0303 41.1706 28.33C34.5239 29.6686 28.2651 29.9683 23.571 29.1691C18.5358 28.3167 15.3328 26.0857 14.4435 22.8092C14.2362 22.0633 14.1894 20.7647 14.3365 20.1787C14.6508 18.94 15.3529 18.2607 16.4361 18.1408C16.6635 18.1208 16.8507 18.1142 16.8507 18.1341C16.8507 18.1608 16.7905 18.274 16.717 18.3939C16.5498 18.6736 16.5498 18.8667 16.7237 19.2263C17.0246 19.8457 17.6999 20.1986 18.2951 20.0521C18.9838 19.879 19.4586 19.4861 19.7795 18.8467C20.0336 18.3339 20.0336 17.5814 19.7862 17.0486C19.1042 15.6102 16.8775 15.164 14.9316 16.083C14.2228 16.4093 13.7347 16.7689 13.1596 17.3683C12.2836 18.2807 11.7754 19.3529 11.6484 20.5449C11.3943 22.9091 12.7985 25.2266 15.6203 27.0913C21.0032 30.6542 30.1775 31.7264 40.7895 30.0282C53.3339 28.0237 65.5105 22.5961 71.5822 16.3028C73.742 14.0651 75.0526 11.8808 75.5942 9.62316C75.7882 8.824 75.9219 7.56533 75.8684 7.09916L75.8216 6.75952L76.1426 6.54641C77.1456 5.87379 77.8544 5.87379 78.8373 6.53309L79.1382 6.73954L79.1516 7.61195C79.185 10.4822 80.6294 13.4325 83.4178 16.3094C88.4931 21.5439 97.6607 26.1723 108.179 28.8029C116.524 30.8873 124.843 31.3735 131.262 30.1614C132.372 29.9483 133.756 29.5887 134.806 29.2424C140.122 27.4776 143.365 24.4142 143.372 21.1443C143.372 19.6525 142.89 18.4671 141.834 17.3616C140.249 15.71 138.056 15.1573 136.317 15.9698C135.809 16.2095 135.441 16.5691 135.214 17.0486C134.966 17.5747 134.973 18.3273 135.22 18.8467C135.515 19.4727 136.016 19.879 136.705 20.0521C137.3 20.1986 137.975 19.8457 138.276 19.2263C138.45 18.8667 138.45 18.6736 138.283 18.3939C138.209 18.274 138.149 18.1608 138.149 18.1341C138.149 18.1142 138.336 18.1208 138.571 18.1408C139.647 18.2607 140.349 18.94 140.663 20.1787C140.811 20.7647 140.764 22.0633 140.556 22.8092C139.767 25.6995 137.193 27.7839 133.154 28.8029C128.3 30.0216 121.392 29.8551 113.829 28.33C112.325 28.0303 111.308 27.724 110.573 27.3577C109.075 26.6118 108.005 25.5063 107.885 24.574C107.805 23.9413 108.319 23.4086 109.102 23.322L109.416 23.2887L109.229 23.6084C108.747 24.4142 109.262 25.1734 110.279 25.1734C110.927 25.1734 111.389 24.8937 111.643 24.3476C112.071 23.4285 111.603 22.4096 110.493 21.8635C109.623 21.4373 108.714 21.4773 107.704 21.9834C106.875 22.403 106.394 23.0556 106.333 23.8481C106.26 24.867 106.835 25.7261 108.206 26.6385C108.908 27.1113 108.868 27.1047 107.557 26.5919C103.772 25.1068 101.278 23.0822 100.536 20.8979C100.382 20.445 100.342 20.192 100.315 19.526C100.248 17.6946 100.777 16.7756 101.887 16.7822C102.743 16.7956 103.532 17.4216 103.732 18.2474C103.819 18.627 103.806 18.627 104.488 18.3073C105.337 17.9077 105.839 17.3616 105.992 16.6757C106.16 15.9431 105.799 15.0574 105.016 14.2849C104.027 13.2926 102.689 12.9263 101.185 13.2194C100.576 13.3392 99.6065 13.7987 99.1518 14.1717C97.3798 15.6435 97.0722 17.9277 98.2959 20.5583C99.1184 22.3231 100.636 23.8281 102.743 24.9469C103.037 25.1068 103.251 25.24 103.224 25.24C103.104 25.24 100.957 24.3609 99.8004 23.8414C96.5574 22.383 92.9665 20.2919 90.8869 18.6469C90.2918 18.1808 90.118 17.5414 90.4122 16.9354C90.7866 16.1629 91.7696 16.2162 93.2073 17.0819C93.8225 17.4549 94.3841 17.9743 95.7014 19.4195C97.1592 21.0111 100.034 23.6017 100.188 23.4485C100.215 23.4219 100.055 23.1955 99.8205 22.9424C98.1087 21.111 97.2728 19.3395 97.2662 17.5148C97.2662 16.3427 97.5269 15.3637 98.2692 13.8054C99.2454 11.7542 99.4862 11.0816 99.5464 10.2891C99.5664 9.97612 99.553 9.60318 99.5062 9.39007C99.426 9.03045 99.105 8.2313 99.0515 8.27791C99.0382 8.29789 99.0582 8.51766 99.0983 8.77738C99.2722 9.87622 99.0047 10.2625 97.3196 11.3946C95.7148 12.4668 95.0328 13.266 94.7118 14.4514C94.558 15.0041 94.558 16.1096 94.7118 16.7356C94.772 16.9887 94.8188 17.2085 94.8188 17.2284C94.8188 17.2551 94.5847 17.0486 94.3039 16.7689C93.682 16.1762 93.1203 15.79 92.3848 15.4503C91.6693 15.1173 91.0942 14.9841 90.3988 14.9841C89.7301 14.9841 89.2754 15.104 88.8608 15.3837L88.5666 15.5835L87.9314 14.9309C87.0019 13.9719 86.6007 13.226 86.594 12.4468C86.594 11.8142 86.7946 11.4146 87.2493 11.1415C87.5435 10.9617 87.9782 10.9418 88.2724 11.0949L88.4797 11.1948L88.1855 11.3413C87.8578 11.5078 87.597 11.8541 87.597 12.1272C87.597 12.4002 87.9314 12.7532 88.2925 12.8531C89.1216 13.0862 89.9976 12.4602 90.0578 11.5877C90.0912 11.1016 89.9842 10.7753 89.6766 10.4356C89.1417 9.84292 87.9448 9.55656 87.1223 9.82294C86.6341 9.98943 86.1326 10.4889 85.932 11.0217C85.7983 11.368 85.7849 11.5078 85.8117 12.0872C85.8652 13.2726 86.3466 14.1983 87.5502 15.4303C88.0317 15.9232 88.2724 16.2162 88.2523 16.2894C88.239 16.3827 88.0584 16.2428 87.5034 15.7167C85.357 13.6522 83.692 10.7886 83.1369 8.19134C82.9698 7.4055 82.9698 5.74726 83.1436 5.09461C83.3041 4.46195 83.7655 3.51628 84.1467 3.01681C85.3302 1.46512 87.6572 0.852437 89.3289 1.65825C89.797 1.87802 90.2651 2.33753 90.4657 2.76375C90.6596 3.16332 90.7265 3.94916 90.6061 4.38869L90.5325 4.67506L90.2918 4.33542C89.9307 3.82263 89.4894 3.6295 88.7004 3.63616C87.9916 3.64282 87.5034 3.79599 87.0688 4.16893C86.6542 4.52189 86.5004 4.86153 86.5004 5.4276C86.4937 6.31332 87.0153 7.07918 87.9046 7.5054C88.5733 7.82506 89.3222 7.95159 90.2383 7.90497C91.1076 7.85836 91.5957 7.73848 92.2778 7.4055C93.9495 6.59303 94.5313 4.76829 93.6687 3.05677C92.9197 1.55836 91.1812 0.519456 88.8341 0.159836C87.9314 0.0199844 86.2196 0.0666017 85.3102 0.26639C84.2269 0.492817 83.1236 0.945672 82.2677 1.51174C81.7662 1.83806 80.9169 2.64387 80.5291 3.15667C80.1613 3.64948 79.7066 4.52855 79.506 5.16787L79.3522 5.63404L78.7972 5.35434C78.4896 5.19451 78.075 5.02136 77.8678 4.96142C77.5267 4.86153 77.4732 4.86153 77.1322 4.96142C76.9249 5.02136 76.5103 5.19451 76.2027 5.35434L75.6477 5.63404L75.4939 5.16787C75.2933 4.52855 74.8386 3.64948 74.4709 3.15667C74.083 2.64387 73.2338 1.83806 72.7323 1.51174C71.8764 0.945672 70.7797 0.492817 69.6898 0.259731C68.8339 0.079921 66.9014 0.026644 66.0656 0.166496Z" fill="black"/>
<path d="M13.942 11.7476C13.8283 11.7942 13.6411 11.9474 13.5207 12.0806C13.3468 12.2803 13.3067 12.3802 13.3067 12.6266C13.3067 13.2127 13.6678 13.5657 14.2027 13.4991C14.6976 13.4325 14.8581 13.0329 14.5371 12.6599L14.3632 12.4535H14.6441C15.0386 12.4535 15.3128 12.7265 15.3128 13.1328C15.3061 13.6855 14.9316 14.2316 14.2027 14.7178C13.5742 15.144 12.9657 15.6701 12.638 16.083C11.9292 16.9687 11.421 18.2074 11.3141 19.2929C11.2405 20.0455 11.3141 20.2919 11.4277 19.6725C11.7219 18.0609 12.852 16.5758 14.3298 15.8499C15.8076 15.1307 17.292 15.0174 18.8166 15.5236C20.281 16.0097 21.0567 16.9021 21.1169 18.1874C21.1838 19.4927 20.4415 20.7514 19.2914 21.3174C18.8501 21.5306 18.7899 21.5439 18.1212 21.5439C17.4793 21.5372 17.3857 21.5239 17.0513 21.3507C16.8507 21.2442 16.5966 21.0977 16.4963 21.0244C16.2222 20.838 16.162 20.9379 16.1887 21.5306C16.2155 21.9368 16.2556 22.0766 16.4161 22.3497C16.8373 23.0223 17.5595 23.3753 18.616 23.4285C19.4786 23.4685 19.9735 23.3353 20.6421 22.8958C21.8591 22.0766 22.6147 20.5383 22.6214 18.8467C22.6214 17.4416 22.2269 16.4692 21.264 15.5103C20.7892 15.0374 20.582 14.8843 20.0537 14.6245C19.7127 14.458 19.1844 14.2516 18.8902 14.1783C18.1747 13.9919 16.8775 13.9386 16.1486 14.0718C15.8544 14.1251 15.607 14.165 15.5936 14.1517C15.5869 14.145 15.6605 13.9919 15.7608 13.8121C15.9213 13.5324 15.948 13.4125 15.948 12.9729C15.948 12.5068 15.9346 12.4468 15.7407 12.2137C15.4398 11.8342 15.0453 11.6543 14.5505 11.6543C14.3231 11.661 14.049 11.701 13.942 11.7476Z" fill="black"/>
<path d="M139.754 11.8075C139.594 11.8874 139.373 12.0739 139.259 12.2137C139.072 12.4402 139.052 12.5068 139.052 12.9396C139.052 13.3259 139.085 13.4924 139.233 13.7854C139.333 13.9852 139.406 14.1517 139.4 14.1584C139.393 14.165 139.146 14.1251 138.851 14.0718C138.123 13.9386 136.825 13.9919 136.11 14.1783C135.816 14.2516 135.287 14.458 134.946 14.6245C134.418 14.8843 134.211 15.0374 133.736 15.5103C132.773 16.4692 132.379 17.4416 132.379 18.8467C132.385 20.5383 133.141 22.0766 134.358 22.8958C135.027 23.3353 135.521 23.4685 136.384 23.4285C137.44 23.3753 138.163 23.0223 138.584 22.3497C138.744 22.0766 138.785 21.9368 138.811 21.5306C138.838 20.9379 138.778 20.838 138.504 21.0244C138.403 21.0977 138.149 21.2442 137.949 21.3507C137.614 21.5239 137.521 21.5372 136.879 21.5439C136.21 21.5439 136.15 21.5306 135.709 21.3174C133.93 20.445 133.301 18.0542 134.472 16.5825C135.187 15.6834 137.126 15.0641 138.624 15.2505C139.473 15.3504 139.921 15.4836 140.67 15.8499C142.141 16.5691 143.278 18.0609 143.572 19.6659C143.666 20.152 143.793 20.2852 143.739 19.8257C143.719 19.6725 143.686 19.3529 143.666 19.1198C143.579 18.1941 143.031 16.9154 142.362 16.083C142.034 15.6701 141.426 15.144 140.797 14.7178C140.068 14.2316 139.694 13.6855 139.687 13.1328C139.687 12.7265 139.961 12.4535 140.356 12.4535H140.637L140.463 12.6599C140.155 13.0196 140.302 13.4191 140.77 13.4991C141.299 13.579 141.693 13.206 141.693 12.6333C141.693 12.0672 141.165 11.6543 140.443 11.6543C140.155 11.6543 139.961 11.6943 139.754 11.8075Z" fill="black"/>
<path d="M77.1657 13.0928C76.5037 14.1117 75.4338 15.2905 74.2569 16.3028C71.2345 18.8867 67.4364 21.0644 60.6025 24.1078C59.3387 24.6672 58.3223 25.1401 58.3356 25.1534C58.3423 25.1667 58.9241 24.9669 59.6195 24.7139C67.7105 21.7703 73.0399 19.3795 76.711 17.0353C77.1055 16.7889 77.4532 16.5825 77.4933 16.5825C77.5334 16.5825 77.8878 16.7889 78.2824 17.042C82.0069 19.3995 87.2427 21.7503 95.3805 24.7139C96.0759 24.9669 96.6577 25.1667 96.6644 25.1534C96.6777 25.1401 95.6614 24.6672 94.3975 24.1078C87.5636 21.0644 83.7655 18.8867 80.7431 16.3028C79.5662 15.2905 78.4963 14.1117 77.8343 13.0928C77.6739 12.8531 77.5268 12.6533 77.5 12.6533C77.4733 12.6533 77.3262 12.8531 77.1657 13.0928Z" fill="black"/>
<path d="M77.1991 17.2551C76.1158 17.9876 73.8824 19.1731 72.3512 19.819C71.5287 20.172 71.3749 20.2719 71.9566 20.0854C72.1171 20.0321 73.4344 19.6259 74.8788 19.1797L77.5 18.3672L80.1279 19.1797C81.5656 19.6259 82.8829 20.0321 83.0433 20.0854C83.6251 20.2719 83.4713 20.172 82.6488 19.819C81.4051 19.2929 79.8069 18.4738 78.61 17.7546C78.0282 17.4016 77.5134 17.1152 77.4732 17.1152C77.4331 17.1152 77.3128 17.1752 77.1991 17.2551Z" fill="black"/>
<path d="M9.46182 19.1997C7.40897 20.0255 5.54335 21.7836 3.87165 24.4475C2.92213 25.9659 1.79206 28.4632 1.11 30.5344C0.635242 31.9862 0.066864 34.1572 0.066864 34.5168C0.066864 34.5701 0.361083 34.8232 0.72217 35.0696C4.62057 37.7467 7.10806 41.8091 7.87036 46.7505C8.01078 47.6895 8.03084 50.2602 7.90379 51.1792C7.43572 54.489 6.26553 57.2661 4.29961 59.7235C3.61755 60.5759 2.40056 61.7746 1.55133 62.4273C1.17687 62.7203 0.86928 62.9734 0.86928 63C0.86928 63.0266 1.17687 63.2797 1.55133 63.5727C2.40056 64.2254 3.61755 65.4241 4.29961 66.2765C7.40228 70.1591 8.63934 75.1472 7.72325 80.0886C6.90746 84.4839 4.39322 88.3931 0.782351 90.8838C0.38783 91.1569 0.066864 91.4233 0.066864 91.4832C0.066864 91.643 0.38783 93.0282 0.608495 93.8207C1.17687 95.8586 1.8723 97.6833 2.77502 99.528C3.84491 101.699 4.94823 103.297 6.28559 104.623C7.13481 105.468 7.83692 105.995 8.69283 106.441C9.2679 106.747 10.077 107.06 10.1305 107.013C10.1439 106.993 10.1171 106.714 10.0636 106.387C9.93658 105.622 9.93658 104.31 10.0569 103.677C10.3378 102.225 11.2271 100.813 12.5712 99.6812C16.7638 96.1582 24.4202 94.3602 34.5373 94.52C38.2752 94.5799 41.0235 94.8729 44.5341 95.5655C49.3352 96.5245 53.1132 97.7765 60.91 100.993C67.0953 103.544 70.2448 104.683 73.5882 105.595C75.173 106.021 77.1991 106.487 77.4933 106.487C77.9413 106.487 80.703 105.815 82.7157 105.222C85.7515 104.323 88.4195 103.324 94.0833 100.993C97.2127 99.7012 98.4765 99.2017 100.369 98.4958C106.26 96.3048 111.094 95.1859 116.885 94.6598C118.457 94.52 122.582 94.4667 124.568 94.5599C130.894 94.8663 135.528 95.8452 139.253 97.6633C142.569 99.2816 144.488 101.306 144.943 103.677C145.063 104.31 145.063 105.622 144.936 106.387C144.883 106.714 144.856 106.993 144.869 107.013C144.923 107.06 145.732 106.747 146.307 106.441C148.019 105.548 149.684 103.857 151.128 101.553C152.345 99.5946 153.623 96.5778 154.391 93.8207C154.612 93.0282 154.933 91.643 154.933 91.4832C154.933 91.4299 154.639 91.1769 154.285 90.9304C150.379 88.2533 147.892 84.1909 147.13 79.2495C146.989 78.3105 146.969 75.7399 147.096 74.8208C147.564 71.511 148.734 68.7339 150.7 66.2765C151.382 65.4241 152.599 64.2254 153.449 63.5727C153.823 63.2797 154.131 63.0266 154.131 63C154.131 62.9734 153.823 62.7203 153.449 62.4273C152.599 61.7746 151.382 60.5759 150.7 59.7235C147.598 55.8409 146.361 50.8529 147.277 45.9114C148.093 41.5094 150.6 37.6135 154.218 35.1162C154.612 34.8431 154.933 34.5767 154.933 34.5168C154.933 34.1572 154.365 31.9795 153.89 30.5344C152.626 26.6851 150.781 23.4152 148.714 21.3774C147.865 20.5316 147.163 20.0055 146.307 19.5593C145.732 19.253 144.923 18.94 144.869 18.9866C144.856 19.0066 144.883 19.2863 144.936 19.6126C145.063 20.3784 145.063 21.6904 144.943 22.323C144.488 24.6939 142.569 26.7184 139.253 28.3367C135.521 30.1614 130.921 31.1337 124.542 31.4401C122.589 31.5333 118.457 31.48 116.885 31.3402C111.094 30.8141 106.26 29.6952 100.369 27.5042C98.4698 26.7983 97.1993 26.2922 94.0899 25.0069C87.9314 22.4696 84.7819 21.3241 81.4452 20.4184C79.8939 19.9922 77.8009 19.5127 77.5 19.5127C77.1991 19.5127 75.1061 19.9922 73.5548 20.4184C70.2181 21.3241 67.0686 22.4696 60.91 25.0069C57.8007 26.2922 56.5302 26.7983 54.6311 27.5042C48.7401 29.6952 43.9122 30.8141 38.1147 31.3402C36.5434 31.48 32.4109 31.5333 30.4584 31.4401C24.0792 31.1337 19.4786 30.1614 15.7474 28.3367C12.4308 26.7184 10.5116 24.6939 10.0569 22.323C9.90314 21.5239 9.93658 20.132 10.1372 19.1597C10.184 18.9266 10.1305 18.9266 9.46182 19.1997ZM78.5097 22.1099C82.1808 22.9424 85.2567 24.0146 92.3447 26.9382C99.1452 29.7419 102.529 30.9206 106.895 31.9928C112.345 33.3314 118.951 34.0506 123.906 33.8375C128.467 33.6444 131.87 33.1982 135.174 32.3524C141.493 30.7475 145.946 27.6774 147.283 24.0146L147.424 23.6217L147.711 24.0079C149.082 25.8526 150.654 29.2024 151.556 32.1793C152.024 33.7243 152.038 33.5711 151.322 34.1639C150.54 34.8032 149.089 36.2816 148.44 37.0941C146.14 39.9977 144.763 43.2676 144.335 46.8504C144.207 47.9692 144.207 50.0604 144.335 51.1725C144.829 55.408 146.648 59.2773 149.577 62.3474L150.199 63L149.577 63.646C146.648 66.7227 144.829 70.592 144.335 74.8275C144.207 75.9396 144.207 78.0308 144.335 79.1496C144.763 82.7325 146.14 86.0023 148.44 88.9059C149.089 89.7184 150.54 91.1968 151.322 91.8362C152.038 92.4289 152.024 92.2757 151.556 93.8207C150.654 96.7976 149.082 100.147 147.711 101.992L147.424 102.378L147.283 101.985C145.772 97.8565 140.443 94.5866 132.8 93.1081C129.055 92.3889 123.926 91.996 120.282 92.1625C113.442 92.4688 107.671 93.5144 101.405 95.5988C98.7506 96.4779 96.8315 97.2105 92.3447 99.0618C86.0792 101.646 83.6987 102.512 80.3753 103.417C79.7334 103.597 78.824 103.823 78.3492 103.923L77.4933 104.11L76.8113 103.963C73.1068 103.158 69.8637 102.032 62.6553 99.0618C55.8749 96.2648 52.5248 95.0994 48.2185 94.0405C42.6751 92.6686 36.102 91.9494 31.0936 92.1625C24.8481 92.4289 20.1674 93.2547 16.2489 94.7864C11.8356 96.5045 8.77308 99.0885 7.71656 101.985L7.57614 102.378L7.28861 101.992C6.22541 100.554 4.89473 97.943 4.01208 95.5322C3.65767 94.5666 3.07592 92.6486 3.07592 92.4488C3.07592 92.3889 3.35008 92.1092 3.68442 91.8362C4.41997 91.2301 5.90444 89.7251 6.47282 89.0191C9.34145 85.4229 10.7657 81.4338 10.7657 76.9985C10.7657 73.8086 10.1171 71.0914 8.66609 68.2278C7.7968 66.5229 6.76035 65.0512 5.42299 63.646L4.80112 63L5.42299 62.3474C6.76035 60.9488 7.7968 59.4771 8.66609 57.7722C10.1171 54.9086 10.7657 52.1914 10.7657 49.0015C10.7657 44.5662 9.34145 40.5771 6.47282 36.9809C5.89775 36.2616 4.41328 34.7632 3.67774 34.1639C2.96225 33.5711 2.97562 33.7243 3.4437 32.1793C4.34642 29.2024 5.91781 25.8526 7.28861 24.0079L7.57614 23.6217L7.71656 24.0146C9.0673 27.7173 13.5675 30.7874 20.0002 32.3991C23.1497 33.1915 26.5265 33.6311 30.9599 33.8375C35.888 34.064 42.6217 33.3381 48.1048 31.9928C52.4713 30.9206 55.8481 29.7419 62.6553 26.9382C69.3087 24.1944 72.3378 23.1155 75.6277 22.323C76.2362 22.1765 76.8514 22.0234 76.9985 21.9901C77.4198 21.8835 77.5669 21.8968 78.5097 22.1099Z" fill="black"/>
<path d="M16.7371 24.1012C16.483 24.261 16.3158 24.554 16.3158 24.8471C16.3158 25.0002 16.3827 25.1201 16.5699 25.3066C17.4124 26.1457 18.83 25.1268 18.0276 24.261C17.8203 24.0346 17.7668 24.0146 17.379 23.9946C17.038 23.9746 16.9109 23.9946 16.7371 24.1012Z" fill="black"/>
<path d="M137.24 24.0412C137.166 24.0679 137.019 24.1878 136.926 24.3076C136.417 24.9003 137.026 25.7328 137.868 25.6063C138.276 25.5463 138.684 25.1601 138.684 24.8471C138.684 24.3343 138.276 23.9746 137.715 23.9813C137.534 23.9813 137.32 24.0079 137.24 24.0412Z" fill="black"/>
<path d="M18.3486 25.5663C17.934 25.8127 17.827 26.1324 18.0209 26.5053C18.148 26.7517 18.6227 26.9382 18.9638 26.8716C19.6993 26.7384 19.8264 25.8127 19.151 25.533C18.8434 25.4065 18.596 25.4198 18.3486 25.5663Z" fill="black"/>
<path d="M135.836 25.533C135.374 25.7328 135.254 26.2988 135.595 26.6385C136.25 27.2911 137.501 26.5253 136.939 25.8127C136.658 25.4597 136.25 25.3532 135.836 25.533Z" fill="black"/>
<path d="M20.0203 26.5586C19.5388 26.8649 19.6057 27.451 20.1406 27.6707C20.9297 27.9837 21.6117 27.1579 21.0032 26.6118C20.7959 26.4254 20.2811 26.3987 20.0203 26.5586Z" fill="black"/>
<path d="M134.204 26.4853C133.87 26.6052 133.696 26.9515 133.803 27.2778C133.943 27.6907 134.425 27.8572 134.893 27.6507C135.274 27.4843 135.408 27.1646 135.241 26.8449C135.073 26.5186 134.579 26.3455 134.204 26.4853Z" fill="black"/>
<path d="M21.6585 27.3644C21.3509 27.6707 21.4111 28.0703 21.799 28.2701C22.2069 28.4765 22.7151 28.3367 22.8688 27.9704C22.9424 27.7906 22.9424 27.724 22.8488 27.5309C22.6482 27.118 21.9996 27.0247 21.6585 27.3644Z" fill="black"/>
<path d="M132.412 27.2378C132.332 27.2711 132.218 27.4043 132.151 27.5309C132.058 27.724 132.058 27.7906 132.131 27.9704C132.285 28.3367 132.793 28.4765 133.201 28.2701C133.589 28.0703 133.649 27.6707 133.341 27.3644C133.181 27.2112 133.087 27.1713 132.853 27.1779C132.693 27.1779 132.499 27.2046 132.412 27.2378Z" fill="black"/>
<path d="M23.6178 27.8106C23.1296 28.1502 23.4305 28.8362 24.0658 28.8362C24.3667 28.8362 24.6743 28.5431 24.6743 28.2634C24.6743 27.9238 24.4269 27.704 24.0591 27.704C23.8986 27.704 23.698 27.7506 23.6178 27.8106Z" fill="black"/>
<path d="M130.493 27.8705C129.991 28.3633 130.673 29.0759 131.322 28.7363C131.549 28.623 131.683 28.3034 131.596 28.077C131.449 27.684 130.794 27.5642 130.493 27.8705Z" fill="black"/>
<path d="M25.5034 28.1302C25.1557 28.2834 25.0889 28.7363 25.3831 28.9627C25.7709 29.269 26.4128 29.0493 26.4128 28.6097C26.4128 28.1968 25.9247 27.9438 25.5034 28.1302Z" fill="black"/>
<path d="M128.988 28.0836C128.574 28.2368 128.453 28.7229 128.761 28.9627C129.142 29.2624 129.791 29.0493 129.791 28.6297C129.791 28.3433 129.69 28.1968 129.45 28.1103C129.222 28.0303 129.142 28.0303 128.988 28.0836Z" fill="black"/>
<path d="M27.2821 28.35C27.0882 28.4499 27.0414 28.5098 27.028 28.7096C27.008 28.9094 27.0414 28.9827 27.1885 29.0959C27.4426 29.2957 27.7168 29.2757 27.9575 29.0426C28.1915 28.8095 28.1982 28.6963 28.0043 28.4765C27.797 28.2501 27.563 28.2101 27.2821 28.35Z" fill="black"/>
<path d="M127.203 28.3034C127.002 28.3833 126.829 28.6697 126.882 28.8295C126.942 29.0226 127.236 29.2357 127.45 29.2357C127.551 29.2357 127.711 29.1758 127.811 29.0959C128.039 28.9161 128.052 28.5498 127.838 28.41C127.624 28.2768 127.377 28.2301 127.203 28.3034Z" fill="black"/>
<path d="M28.8937 28.5232C28.6529 28.643 28.5994 28.8628 28.7599 29.0626C29.0073 29.3756 29.5556 29.2357 29.5556 28.8628C29.5556 28.6963 29.4888 28.6097 29.3082 28.5098C29.1277 28.4166 29.0943 28.4166 28.8937 28.5232Z" fill="black"/>
<path d="M125.678 28.5165C125.277 28.7496 125.424 29.2357 125.899 29.2357C126.26 29.2357 126.481 28.7896 126.22 28.5764C126.086 28.4632 125.819 28.4366 125.678 28.5165Z" fill="black"/>
<path d="M30.3046 28.6763C30.2243 28.7296 30.1575 28.8362 30.1575 28.9094C30.1575 29.0759 30.3848 29.3023 30.5587 29.3023C30.7125 29.3023 30.9599 29.0826 30.9599 28.9361C30.9599 28.7962 30.7192 28.5698 30.5721 28.5698C30.5052 28.5698 30.3848 28.6164 30.3046 28.6763Z" fill="black"/>
<path d="M124.174 28.703C124.1 28.7762 124.04 28.8828 124.04 28.9361C124.04 29.0826 124.288 29.3023 124.441 29.3023C124.615 29.3023 124.843 29.0759 124.843 28.9094C124.843 28.7629 124.609 28.5698 124.428 28.5698C124.361 28.5698 124.247 28.6297 124.174 28.703Z" fill="black"/>
<path d="M31.5283 28.7229C31.3343 28.8694 31.4413 29.1691 31.6887 29.1691C31.789 29.1691 31.9295 29.1159 31.9896 29.0426C32.0966 28.9227 32.0966 28.9094 31.9228 28.7762C31.7155 28.6097 31.6954 28.6097 31.5283 28.7229Z" fill="black"/>
<path d="M123.077 28.7762C122.903 28.9094 122.903 28.9227 123.01 29.0426C123.071 29.1159 123.211 29.1691 123.311 29.1691C123.559 29.1691 123.666 28.8694 123.472 28.7229C123.305 28.6097 123.285 28.6097 123.077 28.7762Z" fill="black"/>
<path d="M58.3758 100.887C58.4292 100.92 59.5326 101.419 60.8164 101.992C66.5403 104.543 69.984 106.421 72.7858 108.519C74.725 109.97 76.2496 111.495 77.1657 112.907C77.3261 113.147 77.4732 113.347 77.5 113.347C77.5267 113.347 77.6739 113.147 77.8343 112.907C79.1984 110.803 81.8665 108.505 85.3503 106.427C87.8512 104.936 90.2651 103.73 94.772 101.726C95.8285 101.26 96.6777 100.86 96.6711 100.847C96.6577 100.833 96.0759 101.033 95.3805 101.286C87.129 104.29 81.833 106.68 78.1219 109.065C77.8143 109.258 77.5401 109.418 77.5 109.418C77.4599 109.418 77.1857 109.258 76.8781 109.065C73.1736 106.68 67.8643 104.29 59.6262 101.286C58.4092 100.847 58.1618 100.767 58.3758 100.887Z" fill="black"/>
<path d="M72.3512 106.181C73.5949 106.707 75.193 107.526 76.39 108.245C76.9717 108.598 77.4732 108.885 77.5 108.885C77.5267 108.885 78.0282 108.598 78.61 108.245C79.8069 107.526 81.4051 106.707 82.6488 106.181C83.4713 105.828 83.6251 105.728 83.0433 105.915C82.8829 105.968 81.5656 106.374 80.1279 106.82L77.5 107.633L74.8788 106.82C73.4344 106.374 72.1171 105.968 71.9566 105.915C71.3749 105.728 71.5287 105.828 72.3512 106.181Z" fill="black"/>
<path d="M30.2912 96.8309C30.2177 96.9041 30.1575 97.024 30.1575 97.0906C30.1575 97.2371 30.3915 97.4302 30.5721 97.4302C30.7192 97.4302 30.9599 97.2038 30.9599 97.064C30.9599 96.9175 30.7125 96.6977 30.5587 96.6977C30.4851 96.6977 30.3648 96.7576 30.2912 96.8309Z" fill="black"/>
<path d="M124.174 96.8309C124.1 96.9041 124.04 97.0107 124.04 97.064C124.04 97.2038 124.281 97.4302 124.428 97.4302C124.609 97.4302 124.843 97.2371 124.843 97.0906C124.843 96.9241 124.615 96.6977 124.441 96.6977C124.368 96.6977 124.247 96.7576 124.174 96.8309Z" fill="black"/>
<path d="M27.1885 96.9041C26.9478 97.0973 26.9478 97.4502 27.1885 97.6101C27.4627 97.7899 27.8037 97.7566 27.9909 97.5368C28.1982 97.3037 28.1915 97.1972 27.9575 96.9574C27.7235 96.7243 27.4426 96.7044 27.1885 96.9041Z" fill="black"/>
<path d="M28.7666 96.9308C28.5994 97.1439 28.6462 97.337 28.9003 97.4702C29.2012 97.6234 29.5556 97.4502 29.5556 97.1372C29.5556 96.7709 29.0073 96.6244 28.7666 96.9308Z" fill="black"/>
<path d="M125.558 96.8842C125.244 97.2238 125.665 97.69 126.086 97.4835C126.347 97.357 126.407 97.1439 126.24 96.9374C126.073 96.7243 125.725 96.7043 125.558 96.8842Z" fill="black"/>
<path d="M127.043 96.9574C126.808 97.1972 126.802 97.3037 127.009 97.5368C127.317 97.8964 127.985 97.7099 127.985 97.2638C127.985 96.7909 127.404 96.6045 127.043 96.9574Z" fill="black"/>
<path d="M31.4547 97.0107C31.4213 97.1372 31.4413 97.2105 31.5283 97.2771C31.6954 97.3903 31.7155 97.3903 31.9228 97.2238C32.0966 97.0906 32.0966 97.0773 31.9897 96.9574C31.9295 96.8842 31.789 96.8309 31.6887 96.8309C31.535 96.8309 31.4881 96.8708 31.4547 97.0107Z" fill="black"/>
<path d="M123.01 96.9574C122.903 97.0773 122.903 97.0906 123.077 97.2238C123.285 97.3903 123.305 97.3903 123.472 97.2771C123.666 97.1306 123.559 96.8309 123.311 96.8309C123.211 96.8309 123.071 96.8842 123.01 96.9574Z" fill="black"/>
<path d="M25.3831 97.0373C25.1959 97.1838 25.149 97.4636 25.2761 97.6966C25.3563 97.8498 25.7642 97.9897 25.9582 97.9297C26.6402 97.7233 26.5198 96.8975 25.811 96.8975C25.6572 96.8975 25.4901 96.9508 25.3831 97.0373Z" fill="black"/>
<path d="M128.761 97.0373C128.28 97.4103 128.808 98.0962 129.423 97.8964C130.045 97.69 129.858 96.8975 129.189 96.8975C129.035 96.8975 128.868 96.9507 128.761 97.0373Z" fill="black"/>
<path d="M23.6646 97.2638C23.4439 97.3836 23.3169 97.7033 23.4038 97.9231C23.5509 98.316 24.2062 98.4358 24.5071 98.1295C25.0153 97.63 24.3132 96.9108 23.6646 97.2638Z" fill="black"/>
<path d="M130.533 97.337C130.098 97.6966 130.359 98.296 130.941 98.296C131.442 98.296 131.73 97.9697 131.59 97.5634C131.442 97.1639 130.887 97.0373 130.533 97.337Z" fill="black"/>
<path d="M21.7856 97.7366C21.4111 97.9364 21.3576 98.3359 21.6585 98.6356C22.0063 98.9753 22.6883 98.8621 22.8689 98.4292C23.0962 97.8831 22.374 97.4169 21.7856 97.7366Z" fill="black"/>
<path d="M132.392 97.7299C132.298 97.7832 132.178 97.9164 132.131 98.0296C132.058 98.2094 132.058 98.276 132.151 98.4691C132.278 98.7289 132.479 98.8288 132.873 98.8288C133.355 98.8288 133.676 98.3493 133.469 97.9563C133.308 97.6633 132.74 97.5435 132.392 97.7299Z" fill="black"/>
<path d="M20.1139 98.3359C19.9534 98.4025 19.833 98.5158 19.7595 98.6756C19.6525 98.8954 19.6525 98.9353 19.7461 99.1351C19.8932 99.4348 20.2008 99.588 20.5753 99.5413C21.0634 99.4881 21.3309 99.1351 21.1971 98.7222C21.0634 98.3293 20.5619 98.1495 20.1139 98.3359Z" fill="black"/>
<path d="M134.304 98.276C134.064 98.3426 133.876 98.5024 133.803 98.7222C133.669 99.1351 133.937 99.4881 134.425 99.5413C135.267 99.6412 135.662 98.6956 134.913 98.3559C134.632 98.2294 134.545 98.2161 134.304 98.276Z" fill="black"/>
<path d="M18.3553 99.2217C17.8805 99.4348 17.7802 99.901 18.1413 100.261C18.4021 100.52 18.6227 100.594 18.9705 100.527C19.6926 100.394 19.8197 99.4681 19.151 99.1884C18.8568 99.0685 18.6762 99.0752 18.3553 99.2217Z" fill="black"/>
<path d="M135.836 99.1884C135.555 99.3149 135.408 99.5347 135.408 99.8477C135.408 100.307 135.949 100.66 136.457 100.534C136.712 100.467 137.079 100.074 137.079 99.8677C137.079 99.568 136.906 99.3216 136.611 99.2017C136.284 99.0752 136.11 99.0685 135.836 99.1884Z" fill="black"/>
<path d="M16.9444 100.434C16.6434 100.52 16.3158 100.913 16.3158 101.18C16.3158 101.712 16.7638 102.059 17.4057 102.012C17.7668 101.985 17.827 101.959 18.0276 101.739C18.4221 101.319 18.2951 100.727 17.7668 100.487C17.4592 100.354 17.2653 100.34 16.9444 100.434Z" fill="black"/>
<path d="M137.233 100.487C136.705 100.727 136.578 101.319 136.972 101.739C137.173 101.959 137.233 101.985 137.594 102.012C138.236 102.059 138.684 101.712 138.684 101.18C138.684 100.773 138.156 100.36 137.648 100.36C137.574 100.36 137.387 100.42 137.233 100.487Z" fill="black"/>
<path d="M68.6084 72.0127C68.6084 70.2197 69.0654 68.6904 69.9795 67.4248C70.9111 66.1592 72.3174 65.0254 74.1982 64.0234C73.4951 63.0742 72.959 62.1338 72.5898 61.2021C72.2207 60.2705 72.0361 59.2334 72.0361 58.0908C72.0361 57.1943 72.1943 56.3682 72.5107 55.6123C72.8447 54.8564 73.3018 54.2061 73.8818 53.6611C74.4795 53.0986 75.1826 52.6592 75.9912 52.3428C76.8174 52.0264 77.7227 51.8682 78.707 51.8682C79.832 51.8682 80.79 52 81.5811 52.2637C82.3721 52.5273 83.0137 52.8877 83.5059 53.3447C84.0156 53.7842 84.3848 54.3027 84.6133 54.9004C84.8418 55.4805 84.9561 56.0957 84.9561 56.7461C84.9561 57.5547 84.7891 58.293 84.4551 58.9609C84.1387 59.6113 83.6904 60.2266 83.1104 60.8066C82.5303 61.3867 81.8359 61.9404 81.0273 62.4678C80.2363 62.9775 79.3662 63.4785 78.417 63.9707C78.9092 64.6035 79.4541 65.2715 80.0518 65.9746C80.6494 66.6777 81.2734 67.3984 81.9238 68.1367C82.5742 68.8574 83.2422 69.5869 83.9277 70.3252C84.6133 71.0459 85.3076 71.7402 86.0107 72.4082C86.8018 71.4414 87.3555 70.3428 87.6719 69.1123C88.0059 67.8818 88.1729 66.6865 88.1729 65.5264C88.1729 65.2275 88.1465 64.9023 88.0938 64.5508C88.041 64.1816 87.9795 63.8916 87.9092 63.6807L90.9678 63.0215C91.0557 63.2676 91.126 63.584 91.1787 63.9707C91.2314 64.3574 91.2578 64.7266 91.2578 65.0781C91.2578 66.5723 90.915 68.0488 90.2295 69.5078C89.5439 70.9492 88.5771 72.3291 87.3291 73.6475C88.6475 74.8076 89.9043 75.7656 91.0996 76.5215C92.2949 77.2598 93.3584 77.6289 94.29 77.6289H94.5537V78.8154C94.167 78.9561 93.6748 79.0703 93.0771 79.1582C92.4795 79.2461 91.873 79.29 91.2578 79.29C90.2559 79.29 89.2012 78.9912 88.0938 78.3936C87.0039 77.7959 85.8877 77.0049 84.7451 76.0205C83.374 77.0576 81.959 77.8574 80.5 78.4199C79.0586 78.9648 77.5908 79.2373 76.0967 79.2373C74.8486 79.2373 73.7588 79.0439 72.8271 78.6572C71.8955 78.2705 71.1133 77.752 70.4805 77.1016C69.8652 76.4336 69.3994 75.6689 69.083 74.8076C68.7666 73.9287 68.6084 72.9971 68.6084 72.0127ZM77.4678 76.6533C78.6104 76.6533 79.6562 76.4951 80.6055 76.1787C81.5723 75.8623 82.4951 75.3965 83.374 74.7812C82.6533 74.0957 81.9326 73.3662 81.2119 72.5928C80.5088 71.8193 79.8232 71.0459 79.1553 70.2725C78.4873 69.4814 77.8457 68.6992 77.2305 67.9258C76.6152 67.1523 76.0352 66.4141 75.4902 65.7109C74.8926 66.1328 74.3916 66.5547 73.9873 66.9766C73.6006 67.3809 73.2842 67.8115 73.0381 68.2686C72.8096 68.708 72.6426 69.1826 72.5371 69.6924C72.4492 70.1846 72.4053 70.7207 72.4053 71.3008C72.4053 72.1445 72.5283 72.9004 72.7744 73.5684C73.0381 74.2363 73.3896 74.7988 73.8291 75.2559C74.2861 75.7129 74.8223 76.0645 75.4375 76.3105C76.0527 76.5391 76.7295 76.6533 77.4678 76.6533ZM76.9141 62.0195C76.9668 62.1074 77.0195 62.1865 77.0723 62.2568C77.1426 62.3271 77.2041 62.4062 77.2568 62.4941C78.2061 62.002 78.9971 61.5449 79.6299 61.123C80.2627 60.7012 80.7637 60.2793 81.1328 59.8574C81.5195 59.4355 81.792 58.9873 81.9502 58.5127C82.126 58.0205 82.2139 57.458 82.2139 56.8252C82.2139 55.7705 81.9062 54.9531 81.291 54.373C80.6758 53.793 79.8584 53.5029 78.8389 53.5029C78.3994 53.5029 77.9512 53.5732 77.4941 53.7139C77.0547 53.8545 76.6504 54.083 76.2812 54.3994C75.9297 54.7158 75.6396 55.1289 75.4111 55.6387C75.1826 56.1484 75.0684 56.7725 75.0684 57.5107C75.0684 58.3193 75.2266 59.0752 75.543 59.7783C75.8594 60.4814 76.3164 61.2285 76.9141 62.0195Z" fill="black"/>
<path d="M41.3516 77.5625C40.5234 78.0312 39.7266 78.4219 38.9609 78.7344C38.2109 79.0469 37.5078 79.2969 36.8516 79.4844C36.1953 79.6719 35.6016 79.8047 35.0703 79.8828C34.5547 79.9609 34.1094 80 33.7344 80H30.2188L32.7734 78.5703C33.0391 78.2266 33.2969 77.8828 33.5469 77.5391C33.7969 77.1953 34.0078 76.875 34.1797 76.5781C34.3828 76.25 34.5703 75.9219 34.7422 75.5938C35.2266 74.6094 35.9453 73.0156 36.8984 70.8125C37.2891 69.875 37.75 68.7578 38.2812 67.4609C38.8281 66.1641 39.4531 64.6562 40.1562 62.9375C40.8594 61.2188 41.6406 59.2656 42.5 57.0781C43.3594 54.8906 44.3203 52.4375 45.3828 49.7188L49.4609 45.9688L58.6484 77.1172C59.3047 77.2891 59.9297 77.3984 60.5234 77.4453C61.1328 77.4922 61.7031 77.5156 62.2344 77.5156C62.5156 77.5156 62.7734 77.5156 63.0078 77.5156C63.2422 77.5 63.4453 77.4844 63.6172 77.4688C63.8047 77.4531 63.9844 77.4297 64.1562 77.3984C63.25 77.8359 62.4609 78.2188 61.7891 78.5469C61.1172 78.8594 60.5156 79.125 59.9844 79.3438C59.4688 79.5625 58.9844 79.7266 58.5312 79.8359C58.0938 79.9453 57.6484 80 57.1953 80H53.4453L54.6641 79.2266L50.9141 66.8047C50.4609 66.9297 49.9375 67.0547 49.3438 67.1797C48.75 67.2891 48.0391 67.3906 47.2109 67.4844C46.3984 67.5781 45.4453 67.6641 44.3516 67.7422C43.2734 67.8203 42.0234 67.8906 40.6016 67.9531C39.9453 69.3438 39.3438 70.5781 38.7969 71.6562C38.25 72.7344 37.7578 73.6719 37.3203 74.4688C36.8828 75.2656 36.4922 75.9375 36.1484 76.4844C35.8203 77.0312 35.5391 77.4688 35.3047 77.7969C35.5703 77.8438 35.8672 77.8828 36.1953 77.9141C36.5234 77.9297 36.8516 77.9375 37.1797 77.9375C37.6797 77.9375 38.1719 77.9219 38.6562 77.8906C39.1562 77.8438 39.6094 77.7969 40.0156 77.75C40.4844 77.6875 40.9297 77.625 41.3516 77.5625ZM44.6328 65.1641C46.7422 65.1641 48.6562 65.1172 50.375 65.0234L46.7891 53.1172C45.8203 55.6016 44.9297 57.8203 44.1172 59.7734C43.3203 61.7266 42.5625 63.5234 41.8438 65.1641H44.6328Z" fill="black"/>
<path d="M116.336 45.2891C115.617 45.7734 114.953 46.1875 114.344 46.5312C113.75 46.8594 113.188 47.1328 112.656 47.3516C112.578 50.1797 112.508 52.7109 112.445 54.9453C112.398 57.1797 112.352 59.1641 112.305 60.8984C112.273 62.6172 112.242 64.1094 112.211 65.375C112.195 66.625 112.18 67.6953 112.164 68.5859C112.117 70.6641 112.102 72.0859 112.117 72.8516C112.102 73.3516 112.039 74.0078 111.93 74.8203C111.836 75.6172 111.641 76.5078 111.344 77.4922C111.047 78.4766 110.633 79.5078 110.102 80.5859C109.57 81.6797 108.875 82.75 108.016 83.7969C107.172 84.8438 106.133 85.8359 104.898 86.7734C103.68 87.7109 102.234 88.5234 100.562 89.2109C101.734 88.5859 102.734 87.8359 103.562 86.9609C104.406 86.1016 105.109 85.1641 105.672 84.1484C106.25 83.1484 106.711 82.1016 107.055 81.0078C107.414 79.9141 107.68 78.8281 107.852 77.75C108.039 76.6562 108.164 75.6016 108.227 74.5859C108.289 73.5703 108.32 72.6406 108.32 71.7969V48.125C107.836 48.1719 107.242 48.2344 106.539 48.3125C105.852 48.3906 105.07 48.4922 104.195 48.6172C105.039 47.9297 105.797 47.4062 106.469 47.0469C107.156 46.6875 107.742 46.4219 108.227 46.25C108.789 46.0625 109.289 45.9531 109.727 45.9219C110.273 45.9375 110.875 45.9297 111.531 45.8984C112.203 45.8672 112.844 45.8281 113.453 45.7812C114.078 45.7188 114.648 45.6484 115.164 45.5703C115.68 45.4766 116.07 45.3828 116.336 45.2891Z" fill="black"/>
</svg>
