<?xml version="1.0" standalone="no"?>
<!DOCTYPE svg PUBLIC "-//W3C//DTD SVG 20010904//EN"
 "http://www.w3.org/TR/2001/REC-SVG-20010904/DTD/svg10.dtd">
<svg version="1.0" xmlns="http://www.w3.org/2000/svg"
 width="2318.000000pt" height="1892.000000pt" viewBox="0 0 2318.000000 1892.000000"
 preserveAspectRatio="xMidYMid meet">

<g transform="translate(0.000000,1892.000000) scale(0.100000,-0.100000)"
fill="#000000" stroke="none">
<path d="M9880 18895 c-341 -56 -598 -214 -708 -434 -101 -201 -73 -411 73
-556 106 -106 248 -161 440 -172 137 -7 249 12 349 60 88 43 140 93 180 177
39 83 42 181 8 246 -51 100 -163 157 -307 158 -118 1 -184 -28 -238 -105 l-36
-51 -11 43 c-18 66 -8 184 21 244 64 137 224 220 419 218 209 -1 406 -97 526
-256 57 -75 126 -217 150 -312 26 -98 26 -347 1 -465 -83 -390 -332 -820 -653
-1130 -83 -79 -110 -100 -112 -86 -3 11 33 55 105 129 117 120 185 219 230
332 24 62 27 84 27 185 1 106 -1 119 -27 172 -34 70 -102 131 -169 154 -120
39 -300 -5 -379 -93 -46 -51 -62 -100 -57 -173 9 -131 140 -225 264 -190 54
15 104 68 104 109 0 41 -39 93 -88 118 l-44 22 31 15 c44 23 109 20 153 -7 68
-41 98 -101 98 -196 -1 -117 -61 -229 -200 -373 l-95 -98 -44 30 c-62 42 -130
60 -230 60 -197 0 -404 -95 -583 -268 -43 -42 -78 -73 -78 -69 0 3 6 34 14 69
56 246 4 451 -155 622 -51 55 -116 106 -233 185 -252 170 -292 228 -266 393 6
39 9 72 7 75 -8 7 -56 -113 -68 -167 -7 -32 -9 -88 -6 -135 9 -119 45 -220
191 -528 111 -234 150 -381 150 -557 -1 -175 -48 -339 -144 -501 -52 -88 -172
-246 -245 -323 -31 -32 -52 -63 -48 -67 23 -23 454 366 671 605 198 218 279
294 372 350 216 131 363 139 419 23 44 -91 18 -187 -71 -257 -311 -247 -848
-561 -1333 -780 -173 -78 -494 -210 -512 -210 -4 0 28 20 72 44 182 97 364
238 476 368 184 214 299 495 299 733 0 270 -132 481 -375 600 -151 75 -317 94
-469 55 -111 -28 -190 -73 -271 -155 -117 -116 -171 -249 -146 -359 23 -103
98 -185 225 -245 102 -48 100 -48 113 9 30 124 148 218 276 220 159 1 237
-125 237 -384 0 -201 -65 -362 -220 -544 -160 -187 -496 -399 -865 -545 -196
-77 -202 -78 -97 -7 205 137 291 266 280 419 -11 152 -128 270 -323 326 -233
68 -495 -94 -495 -304 0 -57 37 -140 76 -170 70 -55 173 -68 251 -30 89 43
111 125 58 214 l-28 48 47 -5 c117 -13 194 -93 182 -188 -18 -140 -178 -306
-402 -418 -110 -55 -262 -101 -487 -146 -994 -201 -1930 -246 -2632 -126 -753
128 -1232 463 -1365 955 -31 112 -38 307 -16 395 47 186 152 288 314 306 34 3
62 4 62 1 0 -4 -9 -21 -20 -39 -25 -42 -25 -71 1 -125 45 -93 146 -146 235
-124 103 26 174 85 222 181 38 77 38 190 1 270 -102 216 -435 283 -726 145
-106 -49 -179 -103 -265 -193 -131 -137 -207 -298 -226 -477 -38 -355 172
-703 594 -983 805 -535 2177 -696 3764 -441 1876 301 3697 1116 4605 2061 323
336 519 664 600 1003 29 120 49 309 41 379 l-7 51 48 32 c150 101 256 101 403
2 l45 -31 2 -131 c5 -431 221 -874 638 -1306 759 -786 2130 -1481 3703 -1876
1248 -313 2492 -386 3452 -204 166 32 373 86 530 138 795 265 1280 725 1281
1216 0 224 -72 402 -230 568 -237 248 -565 331 -825 209 -76 -36 -131 -90
-165 -162 -37 -79 -36 -192 1 -270 44 -94 119 -155 222 -181 89 -22 190 31
235 124 26 54 26 83 1 125 -11 18 -20 35 -20 39 0 3 28 2 63 -1 161 -18 266
-120 313 -306 22 -88 15 -283 -16 -395 -118 -434 -503 -747 -1107 -900 -726
-183 -1759 -158 -2890 71 -225 45 -377 91 -487 146 -224 112 -384 278 -402
418 -12 95 65 175 182 188 l47 5 -28 -48 c-72 -121 5 -235 157 -235 97 0 166
42 204 124 64 138 -6 291 -172 373 -130 64 -266 58 -417 -18 -124 -63 -196
-161 -205 -280 -11 -153 75 -282 280 -419 105 -71 99 -70 -97 7 -566 223 -939
527 -1050 855 -23 68 -29 106 -33 206 -10 275 69 413 235 412 128 -2 246 -96
276 -220 13 -57 11 -57 113 -9 127 60 202 142 225 245 25 110 -29 243 -146
359 -148 149 -348 204 -573 160 -91 -18 -236 -87 -304 -143 -265 -221 -311
-564 -128 -959 123 -265 350 -491 665 -659 44 -24 76 -44 72 -44 -18 0 -339
132 -512 210 -485 219 -1022 533 -1333 780 -89 70 -115 166 -71 257 56 116
203 108 418 -22 92 -56 176 -134 373 -351 218 -239 648 -628 671 -605 4 4 -20
38 -55 76 -256 275 -381 541 -382 815 0 176 39 323 150 557 146 308 182 409
191 528 3 47 1 103 -6 135 -12 54 -60 174 -68 167 -2 -3 1 -36 7 -75 26 -165
-14 -223 -266 -393 -240 -161 -342 -281 -390 -459 -23 -83 -23 -249 0 -343 9
-38 16 -71 16 -74 0 -4 -35 27 -77 69 -93 89 -177 147 -287 198 -107 50 -193
70 -297 70 -100 0 -168 -18 -230 -60 l-44 -30 -95 98 c-139 144 -199 256 -200
373 0 95 30 155 98 196 44 27 109 30 153 7 l31 -15 -44 -22 c-49 -25 -88 -77
-88 -118 0 -41 50 -94 104 -109 124 -35 255 59 264 190 5 73 -11 122 -57 173
-80 89 -259 132 -382 92 -73 -25 -148 -100 -178 -180 -20 -52 -22 -73 -18
-160 8 -178 80 -317 260 -502 72 -74 108 -118 105 -129 -2 -14 -29 7 -112 86
-321 310 -570 740 -653 1130 -25 118 -25 367 1 465 24 95 93 237 150 312 177
233 525 325 775 204 70 -33 140 -102 170 -166 29 -60 39 -178 21 -244 l-11
-43 -36 51 c-54 77 -120 106 -238 105 -106 -1 -179 -24 -244 -80 -62 -53 -85
-104 -85 -189 -1 -133 77 -248 210 -312 100 -48 212 -67 349 -60 130 7 203 25
305 75 250 122 337 396 208 653 -112 225 -372 381 -723 435 -135 21 -391 14
-527 -16 -162 -34 -327 -102 -455 -187 -75 -49 -202 -170 -260 -247 -55 -74
-123 -206 -153 -302 l-23 -70 -83 42 c-46 24 -108 50 -139 59 -51 15 -59 15
-110 0 -31 -9 -93 -35 -139 -59 l-83 -42 -23 70 c-30 96 -98 228 -153 302 -58
77 -185 198 -260 247 -128 85 -292 153 -455 188 -128 27 -417 35 -542 14z"/>
<path d="M2085 17156 c-17 -7 -45 -30 -63 -50 -26 -30 -32 -45 -32 -82 0 -88
54 -141 134 -131 74 10 98 70 50 126 l-26 31 42 0 c59 0 100 -41 100 -102 -1
-83 -57 -165 -166 -238 -94 -64 -185 -143 -234 -205 -106 -133 -182 -319 -198
-482 -11 -113 0 -150 17 -57 44 242 213 465 434 574 221 108 443 125 671 49
219 -73 335 -207 344 -400 10 -196 -101 -385 -273 -470 -66 -32 -75 -34 -175
-34 -96 1 -110 3 -160 29 -30 16 -68 38 -83 49 -41 28 -50 13 -46 -76 4 -61
10 -82 34 -123 63 -101 171 -154 329 -162 129 -6 203 14 303 80 182 123 295
354 296 608 0 211 -59 357 -203 501 -71 71 -102 94 -181 133 -51 25 -130 56
-174 67 -107 28 -301 36 -410 16 -44 -8 -81 -14 -83 -12 -1 1 10 24 25 51 24
42 28 60 28 126 0 70 -2 79 -31 114 -45 57 -104 84 -178 84 -34 -1 -75 -7 -91
-14z"/>
<path d="M20900 17147 c-24 -12 -57 -40 -74 -61 -28 -34 -31 -44 -31 -109 0
-58 5 -83 27 -127 15 -30 26 -55 25 -56 -1 -1 -38 5 -82 13 -109 20 -303 12
-410 -16 -44 -11 -123 -42 -174 -67 -79 -39 -110 -62 -181 -133 -144 -144
-203 -290 -203 -501 1 -254 114 -485 296 -608 100 -66 174 -86 303 -80 158 8
266 61 329 162 24 41 30 62 34 123 4 89 -5 104 -46 76 -15 -11 -53 -33 -83
-49 -50 -26 -64 -28 -160 -29 -100 0 -109 2 -175 34 -266 131 -360 490 -185
711 107 135 397 228 621 200 127 -15 194 -35 306 -90 220 -108 390 -332 434
-573 14 -73 33 -93 25 -24 -3 23 -8 71 -11 106 -13 139 -95 331 -195 456 -49
62 -140 141 -234 205 -109 73 -165 155 -166 238 0 61 41 102 100 102 l42 0
-26 -31 c-46 -54 -24 -114 46 -126 79 -12 138 44 138 130 0 85 -79 147 -187
147 -43 0 -72 -6 -103 -23z"/>
<path d="M11540 16954 c-99 -153 -259 -330 -435 -482 -452 -388 -1020 -715
-2042 -1172 -189 -84 -341 -155 -339 -157 1 -2 88 28 192 66 1210 442 2007
801 2556 1153 59 37 111 68 117 68 6 0 59 -31 118 -69 557 -354 1340 -707
2557 -1152 104 -38 191 -68 192 -66 2 2 -150 73 -339 157 -1022 457 -1590 784
-2042 1172 -176 152 -336 329 -435 482 -24 36 -46 66 -50 66 -4 0 -26 -30 -50
-66z"/>
<path d="M11545 16329 c-162 -110 -496 -288 -725 -385 -123 -53 -146 -68 -59
-40 24 8 221 69 437 136 l392 122 393 -122 c215 -67 412 -128 436 -136 87 -28
64 -13 -59 40 -186 79 -425 202 -604 310 -87 53 -164 96 -170 96 -6 0 -24 -9
-41 -21z"/>
<path d="M1415 16037 c-307 -124 -586 -388 -836 -788 -142 -228 -311 -603
-413 -914 -71 -218 -156 -544 -156 -598 0 -8 44 -46 98 -83 583 -402 955
-1012 1069 -1754 21 -141 24 -527 5 -665 -70 -497 -245 -914 -539 -1283 -102
-128 -284 -308 -411 -406 -56 -44 -102 -82 -102 -86 0 -4 46 -42 102 -86 127
-98 309 -278 411 -406 464 -583 649 -1332 512 -2074 -122 -660 -498 -1247
-1038 -1621 -59 -41 -107 -81 -107 -90 0 -24 48 -232 81 -351 85 -306 189
-580 324 -857 160 -326 325 -566 525 -765 127 -127 232 -206 360 -273 86 -46
207 -93 215 -86 2 3 -2 45 -10 94 -19 115 -19 312 -1 407 42 218 175 430 376
600 627 529 1772 799 3285 775 559 -9 970 -53 1495 -157 718 -144 1283 -332
2449 -815 925 -383 1396 -554 1896 -691 237 -64 540 -134 584 -134 67 0 480
101 781 190 454 135 853 285 1700 635 468 194 657 269 940 375 881 329 1604
497 2470 576 235 21 852 29 1149 15 946 -46 1639 -193 2196 -466 496 -243 783
-547 851 -903 18 -95 18 -292 -1 -407 -8 -49 -12 -91 -10 -94 8 -7 129 40 215
86 256 134 505 388 721 734 182 294 373 747 488 1161 33 119 81 327 81 351 0
8 -44 46 -97 83 -584 402 -956 1012 -1070 1754 -21 141 -24 527 -5 665 70 497
245 914 539 1283 102 128 284 308 411 406 56 44 102 82 102 86 0 4 -46 42
-102 86 -127 98 -309 278 -411 406 -464 583 -649 1332 -512 2074 122 661 497
1246 1038 1621 59 41 107 81 107 90 0 54 -85 381 -156 598 -189 578 -465 1069
-774 1375 -127 127 -232 206 -360 273 -86 46 -207 93 -215 86 -2 -3 2 -45 10
-94 19 -115 19 -312 1 -407 -68 -356 -355 -660 -851 -903 -558 -274 -1246
-420 -2200 -466 -292 -14 -910 -6 -1145 15 -866 79 -1589 247 -2470 576 -284
106 -474 182 -939 375 -921 381 -1392 553 -1891 689 -232 64 -545 136 -590
136 -45 0 -358 -72 -590 -136 -499 -136 -970 -308 -1891 -689 -465 -193 -655
-269 -939 -375 -881 -329 -1603 -497 -2470 -576 -235 -21 -853 -29 -1145 -15
-954 46 -1642 192 -2200 466 -496 243 -783 547 -851 903 -23 120 -18 329 12
475 7 35 -1 35 -101 -6z m10326 -437 c549 -125 1009 -286 2069 -725 1017 -421
1523 -598 2176 -759 815 -201 1803 -309 2544 -277 682 29 1191 96 1685 223
945 241 1611 702 1811 1252 l21 59 43 -58 c205 -277 440 -780 575 -1227 70
-232 72 -209 -35 -298 -117 -96 -334 -318 -431 -440 -344 -436 -550 -927 -614
-1465 -19 -168 -19 -482 0 -649 74 -636 346 -1217 784 -1678 l93 -98 -93 -97
c-438 -462 -710 -1043 -784 -1679 -19 -167 -19 -481 0 -649 64 -538 270 -1029
614 -1465 97 -122 314 -344 431 -440 107 -89 105 -66 35 -298 -135 -447 -370
-950 -575 -1227 l-43 -58 -21 59 c-226 620 -1023 1111 -2166 1333 -560 108
-1327 167 -1872 142 -1023 -46 -1886 -203 -2823 -516 -397 -132 -684 -242
-1355 -520 -937 -388 -1293 -518 -1790 -654 -96 -27 -232 -61 -303 -76 l-128
-28 -102 22 c-554 121 -1039 290 -2117 736 -1014 420 -1515 595 -2159 754
-829 206 -1812 314 -2561 282 -934 -40 -1634 -164 -2220 -394 -660 -258 -1118
-646 -1276 -1081 l-21 -59 -43 58 c-159 216 -358 608 -490 970 -53 145 -140
433 -140 463 0 9 41 51 91 92 110 91 332 317 417 423 429 540 642 1139 642
1805 0 479 -97 887 -314 1317 -130 256 -285 477 -485 688 l-93 97 93 98 c200
210 355 431 485 687 217 430 314 838 314 1317 0 666 -213 1265 -642 1805 -86
108 -308 333 -418 423 -107 89 -105 66 -35 298 135 447 370 950 575 1227 l43
58 21 -59 c202 -556 875 -1017 1837 -1259 471 -119 976 -185 1639 -216 737
-34 1744 75 2564 277 653 161 1158 338 2176 759 995 412 1448 574 1940 693 91
22 183 45 205 50 63 16 85 14 226 -18z"/>
<path d="M2503 15301 c-38 -24 -63 -68 -63 -112 0 -23 10 -41 38 -69 126 -126
338 27 218 157 -31 34 -39 37 -97 40 -51 3 -70 0 -96 -16z"/>
<path d="M20524 15310 c-11 -4 -33 -22 -47 -40 -76 -89 15 -214 141 -195 61 9
122 67 122 114 0 77 -61 131 -145 130 -27 0 -59 -4 -71 -9z"/>
<path d="M2744 15081 c-62 -37 -78 -85 -49 -141 19 -37 90 -65 141 -55 110 20
129 159 28 201 -46 19 -83 17 -120 -5z"/>
<path d="M20314 15086 c-69 -30 -87 -115 -36 -166 98 -98 285 17 201 124 -42
53 -103 69 -165 42z"/>
<path d="M2994 14932 c-72 -46 -62 -134 18 -167 118 -47 220 77 129 159 -31
28 -108 32 -147 8z"/>
<path d="M20070 14943 c-50 -18 -76 -70 -60 -119 21 -62 93 -87 163 -56 57 25
77 73 52 121 -25 49 -99 75 -155 54z"/>
<path d="M3239 14811 c-46 -46 -37 -106 21 -136 61 -31 137 -10 160 45 11 27
11 37 -3 66 -30 62 -127 76 -178 25z"/>
<path d="M19802 14830 c-12 -5 -29 -25 -39 -44 -14 -29 -14 -39 -3 -66 23 -55
99 -76 160 -45 58 30 67 90 21 136 -24 23 -38 29 -73 28 -24 0 -53 -4 -66 -9z"/>
<path d="M3532 14744 c-73 -51 -28 -154 67 -154 45 0 91 44 91 86 0 51 -37 84
-92 84 -24 0 -54 -7 -66 -16z"/>
<path d="M19515 14735 c-75 -74 27 -181 124 -130 34 17 54 65 41 99 -22 59
-120 77 -165 31z"/>
<path d="M3814 14696 c-52 -23 -62 -91 -18 -125 58 -46 154 -13 154 53 0 62
-73 100 -136 72z"/>
<path d="M19290 14703 c-62 -23 -80 -96 -34 -132 57 -45 154 -13 154 50 0 43
-15 65 -51 78 -34 12 -46 12 -69 4z"/>
<path d="M4080 14663 c-29 -15 -36 -24 -38 -54 -3 -30 2 -41 24 -58 38 -30 79
-27 115 8 35 35 36 52 7 85 -31 34 -66 40 -108 19z"/>
<path d="M19023 14670 c-30 -12 -56 -55 -48 -79 9 -29 53 -61 85 -61 15 0 39
9 54 21 34 27 36 82 4 103 -32 20 -69 27 -95 16z"/>
<path d="M4321 14637 c-36 -18 -44 -51 -20 -81 37 -47 119 -26 119 30 0 25
-10 38 -37 53 -27 14 -32 14 -62 -2z"/>
<path d="M18795 14638 c-60 -35 -38 -108 33 -108 54 0 87 67 48 99 -20 17 -60
21 -81 9z"/>
<path d="M4532 14614 c-12 -8 -22 -24 -22 -35 0 -25 34 -59 60 -59 23 0 60 33
60 55 0 21 -36 55 -58 55 -10 0 -28 -7 -40 -16z"/>
<path d="M18570 14610 c-11 -11 -20 -27 -20 -35 0 -22 37 -55 60 -55 26 0 60
34 60 59 0 22 -35 51 -62 51 -10 0 -27 -9 -38 -20z"/>
<path d="M4715 14607 c-29 -22 -13 -67 24 -67 15 0 36 8 45 19 16 18 16 20
-10 40 -31 25 -34 25 -59 8z"/>
<path d="M18406 14599 c-26 -20 -26 -22 -10 -40 9 -11 30 -19 45 -19 37 0 53
45 24 67 -25 17 -28 17 -59 -8z"/>
<path d="M4318 4619 c-807 -41 -1510 -237 -1982 -551 -356 -237 -566 -527
-595 -825 -23 -229 58 -457 222 -630 241 -254 569 -338 831 -215 76 36 131 90
165 162 37 80 37 193 -1 270 -48 96 -119 155 -222 181 -89 22 -190 -31 -235
-124 -26 -54 -26 -83 -1 -125 11 -18 20 -35 20 -39 0 -3 -28 -2 -62 1 -162 18
-267 120 -314 306 -22 88 -15 283 16 395 117 433 505 748 1107 900 725 183
1767 158 2891 -71 225 -45 376 -91 486 -146 224 -112 384 -278 402 -418 12
-95 -65 -175 -182 -188 l-47 -5 28 48 c72 121 -5 235 -157 235 -97 0 -166 -42
-204 -124 -64 -138 6 -291 172 -373 130 -64 266 -58 417 18 124 63 196 161
205 280 11 153 -75 282 -280 419 -105 71 -99 70 97 -7 566 -223 939 -527 1050
-855 23 -68 29 -106 33 -206 10 -275 -69 -413 -235 -412 -128 2 -246 96 -276
220 -13 57 -11 57 -113 9 -127 -60 -202 -142 -225 -245 -25 -110 29 -243 146
-359 148 -149 348 -204 573 -160 91 18 236 87 304 143 265 221 310 564 128
959 -123 265 -350 491 -665 659 -44 24 -76 44 -72 44 18 0 350 -136 517 -212
486 -221 1019 -533 1328 -778 89 -70 115 -166 71 -257 -54 -111 -192 -108
-393 7 -104 59 -190 138 -388 355 -233 255 -658 639 -681 616 -4 -4 17 -35 48
-67 73 -77 193 -235 245 -323 96 -162 143 -326 144 -501 0 -176 -39 -323 -150
-557 -146 -308 -182 -409 -191 -528 -3 -47 -1 -103 6 -135 12 -54 60 -174 68
-167 2 3 -1 36 -7 75 -26 165 14 223 266 393 117 79 182 130 233 185 159 171
211 376 155 622 -8 35 -14 66 -14 69 0 3 35 -28 78 -69 95 -91 178 -148 286
-198 107 -50 193 -70 297 -70 100 0 168 18 230 60 l44 30 95 -98 c139 -144
199 -256 200 -373 0 -95 -30 -155 -98 -196 -44 -27 -109 -30 -153 -7 l-31 15
44 22 c49 25 88 77 88 118 0 41 -50 94 -104 109 -124 35 -255 -59 -264 -190
-5 -73 11 -122 57 -173 79 -88 259 -132 379 -93 67 23 135 84 169 154 26 53
28 66 27 172 0 101 -3 123 -27 185 -45 113 -113 212 -230 332 -72 74 -108 118
-105 129 2 14 29 -7 112 -86 321 -310 570 -740 653 -1130 25 -118 25 -367 -1
-465 -23 -91 -92 -235 -144 -305 -179 -238 -529 -333 -781 -211 -70 33 -140
102 -170 166 -29 60 -39 178 -21 244 l11 43 36 -51 c54 -77 120 -106 238 -105
106 1 179 24 244 80 62 53 85 104 85 189 1 133 -77 248 -210 312 -100 48 -212
67 -349 60 -130 -7 -203 -25 -305 -75 -250 -122 -337 -396 -208 -653 112 -225
372 -381 723 -435 135 -21 391 -14 527 16 162 34 327 102 455 187 75 49 202
170 260 247 55 74 123 206 153 302 l23 70 83 -42 c46 -24 108 -50 139 -59 51
-15 59 -15 110 0 31 9 93 35 139 59 l83 42 23 -70 c30 -96 98 -228 153 -302
58 -77 185 -198 260 -247 128 -85 293 -153 455 -187 136 -30 392 -37 527 -16
351 54 611 210 723 435 101 201 73 411 -73 556 -106 106 -248 161 -440 172
-137 7 -249 -12 -349 -60 -88 -43 -140 -93 -180 -177 -39 -83 -42 -181 -8
-246 51 -100 163 -157 307 -158 118 -1 184 28 238 105 l36 51 11 -43 c18 -66
8 -184 -21 -244 -124 -262 -571 -295 -848 -62 -80 67 -134 140 -186 252 -66
139 -79 204 -80 385 0 113 5 178 18 240 83 390 332 820 653 1130 83 79 110
100 112 86 3 -11 -33 -55 -105 -129 -117 -120 -185 -219 -230 -332 -24 -62
-27 -84 -27 -185 -1 -106 1 -119 27 -172 34 -70 102 -131 169 -154 120 -39
300 5 379 93 46 51 62 100 57 173 -9 131 -140 225 -264 190 -54 -15 -104 -68
-104 -109 0 -41 39 -93 88 -118 l44 -22 -31 -15 c-44 -23 -109 -20 -153 7 -68
41 -98 101 -98 196 1 117 61 229 200 373 l95 98 44 -30 c62 -42 130 -60 230
-60 197 0 404 95 584 268 42 42 77 73 77 69 0 -3 -7 -36 -16 -74 -23 -94 -23
-260 0 -343 48 -178 150 -298 390 -459 252 -170 292 -228 266 -393 -6 -39 -9
-72 -7 -75 8 -7 56 113 68 167 7 32 9 88 6 135 -9 119 -45 220 -191 528 -111
234 -150 381 -150 557 1 274 126 540 382 815 99 106 61 99 -75 -14 -185 -153
-389 -347 -545 -520 -192 -211 -277 -290 -369 -346 -215 -130 -362 -138 -418
-22 -44 91 -18 187 71 257 309 245 842 557 1328 778 167 76 499 212 517 212 4
0 -28 -20 -72 -44 -182 -97 -364 -238 -476 -368 -184 -214 -299 -495 -299
-733 0 -270 131 -481 375 -600 151 -75 317 -94 469 -55 111 28 190 73 271 155
117 116 171 249 146 359 -23 103 -99 186 -226 245 -100 48 -99 48 -112 -9 -30
-124 -148 -218 -276 -220 -166 -1 -245 137 -235 412 4 100 10 138 33 206 92
271 349 516 765 726 126 64 374 169 450 191 14 4 -17 -20 -68 -55 -205 -137
-291 -266 -280 -419 11 -152 128 -270 323 -326 233 -68 495 94 495 304 0 57
-37 140 -76 170 -70 55 -173 68 -251 30 -89 -43 -111 -125 -58 -214 l28 -48
-47 5 c-117 13 -194 93 -182 188 18 140 178 306 402 418 110 55 261 101 486
146 986 201 1932 246 2633 126 753 -128 1232 -463 1365 -955 31 -112 38 -307
16 -395 -47 -186 -152 -288 -313 -306 -35 -3 -63 -4 -63 -1 0 4 9 21 20 39 25
42 25 71 -1 125 -27 55 -88 107 -144 123 -109 30 -259 -57 -317 -185 -33 -74
-32 -190 3 -265 34 -72 89 -126 165 -162 169 -80 370 -73 563 18 203 95 378
284 447 483 35 101 45 163 45 276 -1 491 -486 951 -1281 1216 -806 269 -1880
310 -3080 118 -1708 -272 -3400 -984 -4372 -1838 -454 -399 -734 -812 -833
-1226 -29 -120 -49 -309 -41 -379 l7 -51 -48 -32 c-151 -101 -255 -101 -406 0
l-48 32 7 51 c14 118 -32 391 -94 559 -213 571 -768 1138 -1602 1637 -1505
901 -3641 1445 -5332 1357z"/>
<path d="M4530 4380 c-11 -11 -20 -29 -20 -39 0 -22 35 -51 62 -51 22 0 58 34
58 55 0 22 -37 55 -60 55 -11 0 -29 -9 -40 -20z"/>
<path d="M18570 4380 c-11 -11 -20 -27 -20 -35 0 -21 36 -55 58 -55 27 0 62
29 62 51 0 25 -34 59 -60 59 -11 0 -29 -9 -40 -20z"/>
<path d="M4066 4369 c-36 -29 -36 -82 0 -106 41 -27 92 -22 120 11 31 35 30
51 -5 87 -35 35 -77 38 -115 8z"/>
<path d="M4302 4365 c-25 -32 -18 -61 20 -81 45 -23 98 3 98 50 0 55 -82 77
-118 31z"/>
<path d="M18777 4372 c-47 -51 16 -121 79 -90 39 19 48 51 23 82 -25 32 -77
35 -102 8z"/>
<path d="M18999 4361 c-35 -36 -36 -52 -5 -87 46 -54 146 -26 146 41 0 71 -87
99 -141 46z"/>
<path d="M4704 4353 c-5 -19 -2 -30 11 -40 25 -17 28 -17 59 8 26 20 26 22 10
40 -9 11 -30 19 -45 19 -23 0 -30 -6 -35 -27z"/>
<path d="M18396 4361 c-16 -18 -16 -20 10 -40 31 -25 34 -25 59 -8 29 22 13
67 -24 67 -15 0 -36 -8 -45 -19z"/>
<path d="M3796 4349 c-28 -22 -35 -64 -16 -99 12 -23 73 -44 102 -35 102 31
84 155 -22 155 -23 0 -48 -8 -64 -21z"/>
<path d="M19256 4349 c-72 -56 7 -159 99 -129 93 31 65 150 -35 150 -23 0 -48
-8 -64 -21z"/>
<path d="M3539 4315 c-33 -18 -52 -66 -39 -99 22 -59 120 -77 165 -31 76 75
-29 183 -126 130z"/>
<path d="M19521 4304 c-65 -54 -26 -144 61 -144 75 0 118 49 97 110 -22 60
-105 79 -158 34z"/>
<path d="M3258 4244 c-56 -30 -64 -90 -19 -135 52 -51 154 -34 181 31 34 82
-74 152 -162 104z"/>
<path d="M19799 4245 c-14 -8 -32 -28 -39 -45 -11 -27 -11 -37 3 -66 19 -39
49 -54 108 -54 72 0 120 72 89 131 -24 44 -109 62 -161 34z"/>
<path d="M3008 4154 c-24 -10 -42 -27 -53 -51 -16 -33 -16 -39 -2 -69 22 -45
68 -68 124 -61 73 8 113 61 93 123 -20 59 -95 86 -162 58z"/>
<path d="M20085 4163 c-36 -10 -64 -34 -75 -67 -20 -62 20 -115 93 -123 126
-15 185 127 73 178 -42 19 -55 21 -91 12z"/>
<path d="M2745 4021 c-71 -32 -86 -102 -32 -156 39 -39 72 -50 124 -40 108 20
127 159 27 201 -44 18 -71 17 -119 -5z"/>
<path d="M20314 4026 c-42 -19 -64 -52 -64 -99 0 -69 81 -122 157 -103 38 10
93 69 93 100 0 45 -26 82 -70 100 -49 19 -75 20 -116 2z"/>
<path d="M2534 3839 c-45 -13 -94 -72 -94 -112 0 -80 67 -132 163 -125 54 4
63 8 93 41 59 63 40 152 -39 188 -46 20 -75 22 -123 8z"/>
<path d="M20523 3831 c-79 -36 -98 -125 -39 -188 30 -33 39 -37 93 -41 96 -7
163 45 163 125 0 61 -79 123 -155 123 -11 0 -39 -9 -62 -19z"/>
<path d="M8730 3771 c8 -5 173 -80 365 -166 856 -383 1371 -665 1790 -980 290
-218 518 -447 655 -659 24 -36 46 -66 50 -66 4 0 26 30 50 66 204 316 603 661
1124 973 374 224 735 405 1409 706 158 70 285 130 284 132 -2 2 -89 -28 -193
-66 -1234 -451 -2026 -810 -2581 -1168 -46 -29 -87 -53 -93 -53 -6 0 -47 24
-93 53 -554 358 -1348 717 -2580 1168 -182 66 -219 78 -187 60z"/>
<path d="M2658 3501 c-159 -51 -237 -145 -238 -283 0 -37 5 -70 10 -73 6 -3
22 2 38 13 15 11 52 32 82 48 50 26 65 28 160 29 100 0 109 -2 175 -34 266
-131 360 -490 185 -711 -107 -135 -397 -228 -621 -200 -129 16 -194 35 -307
91 -222 111 -388 330 -434 574 -17 88 -26 50 -16 -62 16 -159 93 -346 198
-478 49 -62 140 -141 234 -205 109 -73 165 -155 166 -238 0 -61 -41 -102 -100
-102 l-42 0 26 31 c46 54 24 114 -46 126 -79 12 -138 -44 -138 -130 0 -85 79
-147 187 -147 73 0 132 28 177 84 28 34 31 44 31 109 0 58 -5 83 -27 127 -15
30 -26 55 -25 56 1 1 38 -5 82 -13 109 -20 303 -12 410 16 44 11 123 42 174
67 79 39 110 62 181 133 144 144 203 290 203 501 -1 185 -59 357 -169 493 -60
75 -169 152 -252 177 -84 26 -224 26 -304 1z"/>
<path d="M20216 3501 c-135 -45 -261 -163 -337 -316 -59 -119 -81 -217 -82
-355 0 -211 59 -357 203 -501 71 -71 102 -94 181 -133 51 -25 130 -56 174 -67
107 -28 301 -36 410 -16 44 8 81 14 83 12 1 -1 -10 -24 -25 -51 -24 -42 -28
-60 -28 -126 0 -70 2 -79 31 -114 45 -56 104 -84 177 -84 70 0 115 19 157 66
77 88 5 229 -106 211 -74 -12 -96 -69 -48 -126 l26 -31 -42 0 c-59 0 -100 41
-100 102 1 83 57 165 166 238 159 107 252 208 328 352 58 110 93 223 106 348
12 122 12 110 2 110 -5 0 -14 -30 -21 -67 -44 -241 -211 -461 -433 -572 -219
-109 -443 -126 -672 -50 -219 73 -335 207 -344 400 -10 196 101 385 273 470
66 32 75 34 175 34 96 -1 110 -3 160 -29 30 -16 68 -38 83 -49 41 -28 50 -13
46 76 -4 61 -10 82 -34 123 -37 59 -95 105 -172 135 -83 32 -254 37 -337 10z"/>
<path d="M10820 2976 c186 -79 425 -202 604 -310 87 -53 162 -96 166 -96 4 0
79 43 166 96 179 108 418 231 604 310 123 53 146 68 59 40 -24 -8 -221 -69
-436 -136 l-393 -122 -392 122 c-216 67 -413 128 -437 136 -87 28 -64 13 59
-40z"/>
</g>
</svg>
